<svg width="16" height="16" viewBox="0 0 16 16" fill="none" xmlns="http://www.w3.org/2000/svg">
<g clip-path="url(#clip0_1_115)">
<path d="M14.355 3.14504L11.355 0.145039C11.2607 0.0514447 11.1329 -0.000711504 11 3.84957e-05H3C2.17156 3.84957e-05 1.5 0.671601 1.5 1.50004V14.5C1.5 15.3285 2.17156 16 3 16H13C13.8284 16 14.5 15.3285 14.5 14.5V3.50004C14.5008 3.36713 14.4486 3.23941 14.355 3.14504ZM13.5 14.5C13.5 14.7762 13.2762 15 13 15H3C2.72384 15 2.5 14.7762 2.5 14.5V1.50004C2.5 1.22388 2.72384 1.00004 3 1.00004H10.5V3.00004C10.5 3.55232 10.9477 4.00004 11.5 4.00004H13.5V14.5Z" fill="white"/>
<path d="M12.5 7.00002H3.5V8.00001H12.5V7.00002Z" fill="white"/>
<path d="M12.5 9.5H3.5V10.5H12.5V9.5Z" fill="white"/>
<path d="M12.5 12H3.5V13H12.5V12Z" fill="white"/>
</g>
<defs>
<clipPath id="clip0_1_115">
<rect width="16" height="16" fill="white"/>
</clipPath>
</defs>
</svg>
