<svg width="419" height="367" viewBox="0 0 419 367" fill="none" xmlns="http://www.w3.org/2000/svg">
<path d="M410.678 220.938C407.346 235.343 402.889 247.678 397.801 256.816C394.829 262.173 391.498 266.72 387.851 270.681C377.63 281.756 364.798 287.923 349.084 291.839C338.773 294.405 327.157 296.026 314.325 297.512C306.265 298.412 297.71 299.222 288.615 300.213C285.283 300.573 281.907 300.933 278.485 301.338C277.944 301.428 277.359 301.473 276.819 301.518C272.091 302.058 267.634 302.914 263.491 304.039C261.645 304.534 259.844 305.074 258.088 305.705C215.36 320.2 199.961 362.381 117.34 366.703C114.864 366.838 112.297 366.928 109.641 366.973C8.78462 369.269 -8.82018 226.25 3.38161 184.429C24.8586 110.646 82.9859 106.145 88.7041 105.019C102.167 102.453 128.731 96.6009 155.296 86.5622C167.183 82.0605 179.114 76.7035 189.83 70.4461C234.495 44.2462 238.322 -17.9672 323.825 4.99148C430.129 33.4872 426.527 152.782 410.678 220.938Z" fill="#D7ECE6"/>
<path d="M294 45.0009C291.2 46.2009 247 59.501 223 67.501C219 68.8343 211.4 76.101 211 76.501C210.6 76.901 204.167 86.001 201 90.501C195.333 111.168 183.9 152.501 183.5 152.501C183.1 152.501 181 156.501 180 158.501L178 163.001L175.5 174.001C174.667 176.334 172.9 181.201 172.5 182.001C172 183.001 169 192.501 168.5 193.001C168 193.501 164 204.001 163.5 205.001L160.5 211.001C159.333 212.834 156.9 216.601 156.5 217.001C156 217.501 149 227.001 149 227.501C149 228.001 140 237.001 139.5 237.501C139 238.001 133 246.001 132.5 246.501C132 247.001 126 258.001 125.5 259.001C125 260.001 122 268.001 122 268.501C122 268.901 120 274.001 119 276.501C118.333 279.334 117 285.201 117 286.001C117 286.801 116 291.334 115.5 293.501L116.5 301.001C117 303.168 118.1 307.501 118.5 307.501C118.9 307.501 119.333 310.501 119.5 312.001C121.333 314.834 125.1 320.601 125.5 321.001C125.9 321.401 129.333 324.501 131 326.001L139 327.501H155.5H173.5C175.667 327.668 180.1 328.001 180.5 328.001C181 328.001 186.5 330.001 187 330.001C187.5 330.001 193.5 331.501 194 331.501H197L201 330.501C201.833 330.334 203.6 330.001 204 330.001C204.4 330.001 205.5 328.668 206 328.001C206.167 327.001 206.5 324.901 206.5 324.501C206.5 324.101 206.167 321.334 206 320.001C205.167 319.001 203.4 317.001 203 317.001C202.6 317.001 198.5 316.001 196.5 315.501C194.667 316.168 190.9 317.501 190.5 317.501C190 317.501 182.5 318.501 181 318.001C179.5 317.501 172 317.001 169.5 316.501C167.5 316.101 165 315.001 164 314.501C164.833 314.168 168.4 312.801 176 310.001C185.5 306.501 189.5 297.501 193 295.001C196.5 292.501 198 281.501 198.5 275.501C198.9 270.701 195.667 263.501 194 260.501L195.5 258.001L197 254.501L197.5 253.001L196 250.501C196.833 251.501 198.7 253.601 199.5 254.001C200.5 254.501 203.5 259.001 207 265.501C210.5 272.001 222.5 311.501 222.5 313.501C222.5 315.501 222 316.501 222 318.001C222 319.501 223.5 324.501 224.5 327.001C225.5 329.501 228 329.501 229.5 330.001C231 330.501 236 330.501 237.5 331.001C239 331.501 242.5 329.501 243.5 329.501H246C247.5 329.501 250 327.501 251 326.001C252 324.501 252.5 321.501 252.5 319.501C252.5 317.501 250 314.501 248 313.501C246 312.501 243.5 312.501 241.5 312.501C239.5 312.501 239 312.501 237.5 312.001C236 311.501 234 303.001 233.5 302.001C233 301.001 230.5 291.001 229 287.001C227.5 283.001 225.5 264.501 225.5 261.001V235.501C226.333 232.168 228.1 225.401 228.5 225.001C229 224.501 237.5 206.001 240 202.001C242.5 198.001 240.5 184.501 240 183.001C239.5 181.501 235 170.001 234.5 169.001C234 168.001 229.5 153.501 227.5 146.001C225.9 140.001 229.167 126.834 231 121.001C232.833 116.168 241.1 105.301 259.5 100.501C282.5 94.501 286.5 86.001 287.5 84.001C288.3 82.401 287.833 80.001 287.5 79.001L288.5 78.501C295 75.501 311 60.501 312 59.501C313 58.501 316 54.001 316 52.501C316 51.301 317.333 47.0009 318 45.0009C316.167 43.8342 312.2 41.4009 311 41.0009C309.5 40.5009 297.5 43.5009 294 45.0009Z" fill="white"/>
<path d="M242.225 329.722C256.325 331.922 255.725 307.822 240.225 312.622C236.525 313.822 232.425 297.522 230.625 292.322C226.925 281.522 225.025 248.722 225.825 233.122C226.325 224.522 240.525 209.722 241.325 192.222C242.025 174.722 224.925 162.322 227.925 136.722C230.225 117.522 232.925 114.722 243.725 107.722C254.425 100.722 267.425 98.3223 275.425 94.7223C280.725 92.3223 288.925 85.9223 288.125 78.8223C288.925 85.9223 280.725 92.3223 275.425 94.7223C267.425 98.3223 254.425 100.722 243.725 107.722C233.025 114.722 230.225 117.522 227.925 136.722C224.925 162.322 242.025 174.722 241.325 192.222C240.625 209.722 226.325 224.622 225.825 233.122C225.025 248.722 226.925 281.522 230.625 292.322C232.425 297.622 236.525 313.822 240.225 312.622C255.725 307.822 256.325 331.922 242.225 329.722Z" stroke="#070707" stroke-width="2" stroke-miterlimit="10" stroke-linecap="round" stroke-linejoin="round"/>
<path d="M237.425 318.022C241.325 316.922 245.025 320.521 244.725 325.621C244.425 330.821 237.525 331.821 231.125 330.721C219.925 328.721 222.625 313.921 222.625 313.921C219.825 303.221 210.525 268.221 201.225 256.621C201.225 256.621 190.125 244.621 189.325 237.021C190.125 244.621 201.225 256.621 201.225 256.621C210.425 268.221 219.725 303.321 222.625 313.921C222.625 313.921 219.925 328.621 231.125 330.721C237.525 331.921 244.425 330.821 244.725 325.621C245.025 320.521 241.325 316.922 237.425 318.022Z" stroke="#070707" stroke-width="2" stroke-miterlimit="10" stroke-linecap="round" stroke-linejoin="round"/>
<path d="M201.625 330.022C209.625 330.022 207.525 315.322 198.225 315.422C190.925 315.522 192.325 318.522 185.125 318.322C175.025 318.022 158.425 313.522 158.425 313.522C158.425 313.522 165.025 315.922 171.825 312.422C180.525 308.022 197.225 298.422 198.225 278.022C199.225 257.622 181.125 243.122 167.125 242.422C181.125 243.122 199.225 257.622 198.225 278.022C197.225 298.422 180.525 308.022 171.825 312.422C165.025 315.922 158.425 313.522 158.425 313.522C158.425 313.522 175.125 318.022 185.125 318.322C192.325 318.522 190.925 315.522 198.225 315.422C207.525 315.322 209.625 330.022 201.625 330.022Z" stroke="#070707" stroke-width="2" stroke-miterlimit="10" stroke-linecap="round" stroke-linejoin="round"/>
<path d="M197.825 322.422C205.125 324.222 205.325 337.422 185.725 329.222C179.725 326.722 168.625 327.422 159.825 327.422C151.025 327.422 148.025 328.922 135.525 327.222C122.925 325.522 115.625 305.222 115.825 292.822C116.025 280.522 124.125 259.122 132.425 246.822C140.725 234.522 156.825 222.622 165.625 200.322C174.425 178.022 182.025 153.622 184.825 136.822C187.625 120.022 189.825 98.2222 199.525 85.8222C209.225 73.5222 222.325 64.9221 239.825 61.6221C257.325 58.3221 303.325 41.7221 314.725 37.4221C323.825 34.0221 317.425 52.0221 311.325 60.5221C305.225 69.1221 277.425 89.3221 249.225 90.2221C277.425 89.3221 305.225 69.0221 311.325 60.5221C317.425 52.0221 323.825 34.0221 314.725 37.4221C303.325 41.7221 257.325 58.3221 239.825 61.6221C222.325 64.9221 209.225 73.5222 199.525 85.8222C189.825 98.1222 187.625 119.922 184.825 136.822C182.025 153.622 174.425 178.122 165.625 200.322C156.825 222.622 140.725 234.422 132.425 246.822C124.125 259.122 116.025 280.522 115.825 292.822C115.625 305.122 122.925 325.522 135.525 327.222C148.125 328.922 151.125 327.422 159.825 327.422C168.625 327.422 179.725 326.722 185.725 329.222C205.325 337.522 205.225 324.222 197.825 322.422Z" stroke="#070707" stroke-width="2" stroke-miterlimit="10" stroke-linecap="round" stroke-linejoin="round"/>
<path d="M198.025 253.021C196.725 254.121 195.125 257.222 194.125 260.822C195.125 257.222 196.725 254.021 198.025 253.021Z" stroke="#070707" stroke-width="2" stroke-miterlimit="10" stroke-linecap="round" stroke-linejoin="round"/>
<path d="M268.625 53.6211C264.625 54.8211 257.125 57.5211 253.225 58.4211C250.825 48.0211 256.925 44.1211 261.025 44.1211C265.225 44.2211 268.625 48.0211 268.625 53.6211Z" fill="white" stroke="#070707" stroke-width="2" stroke-miterlimit="10" stroke-linecap="round" stroke-linejoin="round"/>
<path d="M257.425 64.7219C257.425 70.9219 253.425 76.0219 248.525 76.0219C243.625 76.0219 239.625 71.0219 239.625 64.7219C239.625 58.5219 243.625 53.4219 248.525 53.4219C253.425 53.4219 257.425 58.5219 257.425 64.7219Z" fill="white" stroke="#070707" stroke-width="2" stroke-miterlimit="10" stroke-linecap="round" stroke-linejoin="round"/>
<path d="M204.125 75.4203C192.725 88.7203 178.925 137.12 180.625 150.92C182.325 164.72 203.425 174.62 215.225 150.92C227.125 127.22 207.125 121.02 211.225 103.72C215.225 86.4203 219.225 73.2203 217.225 70.2203C215.225 67.2203 206.325 72.9203 204.125 75.4203Z" fill="#070707" stroke="#070707" stroke-width="2" stroke-miterlimit="10" stroke-linecap="round" stroke-linejoin="round"/>
<path d="M120.525 313.22C107.625 317.42 87.0254 324.92 71.1254 311.52C55.2254 298.12 56.4254 262.82 59.9254 256.82C54.9254 263.42 51.9254 302.02 68.7254 317.42C84.4254 331.82 108.225 328.82 126.225 321.92C121.725 318.72 120.525 313.22 120.525 313.22Z" fill="#070707" stroke="#070707" stroke-width="2" stroke-miterlimit="10" stroke-linecap="round" stroke-linejoin="round"/>
<path d="M307.725 40.2207C309.325 43.8207 315.625 38.6207 318.425 46.1207C319.225 43.3207 320.425 38.6207 317.925 37.4207C316.825 36.7207 307.725 40.2207 307.725 40.2207Z" fill="#070707" stroke="#070707" stroke-width="2" stroke-miterlimit="10" stroke-linecap="round" stroke-linejoin="round"/>
<path d="M251.525 56.0207C251.525 57.5207 250.525 58.8207 249.425 58.8207C248.225 58.8207 247.325 57.6207 247.325 56.0207C247.325 54.5207 248.325 53.7207 249.425 53.7207C250.525 53.8207 251.525 54.5207 251.525 56.0207Z" fill="#070707" stroke="#070707" stroke-width="2" stroke-miterlimit="10" stroke-linecap="round" stroke-linejoin="round"/>
<path d="M263.525 47.0207C263.525 48.5207 262.525 49.8207 261.425 49.8207C260.225 49.8207 259.325 48.6207 259.325 47.0207C259.325 45.5207 260.325 44.7207 261.425 44.7207C262.525 44.8207 263.525 45.5207 263.525 47.0207Z" fill="#070707" stroke="#070707" stroke-width="2" stroke-miterlimit="10" stroke-linecap="round" stroke-linejoin="round"/>
</svg>
