<svg width="29" height="21" viewBox="0 0 29 21" fill="none" xmlns="http://www.w3.org/2000/svg">
<g clip-path="url(#clip0_1_124)">
<path d="M19.2998 4.9C19.2998 7.6 14.3998 16.4 14.3998 16.4C14.3998 16.4 9.49976 7.6 9.49976 4.9C9.49976 2.2 11.6998 0 14.3998 0C17.0998 0 19.2998 2.2 19.2998 4.9Z" fill="#79C0AA"/>
<path d="M26.5998 18.5C24.4998 20.2 17.3997 19.8 17.3997 19.8C17.3997 19.8 18.1997 12.7 20.2997 11C22.3997 9.30001 25.3998 9.50001 27.1998 11.6C28.8998 13.7 28.6998 16.8 26.5998 18.5Z" fill="#79C0AA"/>
<path d="M7.99974 11.5C10.0997 13.2 10.8997 20.3 10.8997 20.3C10.8997 20.3 3.79974 20.7 1.69974 19C-0.400257 17.3 -0.600257 14.2 1.09974 12.1C2.79974 10 5.99974 9.80001 7.99974 11.5Z" fill="#79C0AA"/>
</g>
<defs>
<clipPath id="clip0_1_124">
<rect width="28.3" height="20.4" fill="white" transform="translate(-0.000244141)"/>
</clipPath>
</defs>
</svg>
